<?xml version="1.0" encoding="utf-8"?>
<!-- Generator: Adobe Illustrator 24.2.1, SVG Export Plug-In . SVG Version: 6.00 Build 0)  -->
<svg version="1.1" id="Layer_1" xmlns="http://www.w3.org/2000/svg" xmlns:xlink="http://www.w3.org/1999/xlink" x="0px" y="0px"
	 viewBox="0 0 223.4 145" style="enable-background:new 0 0 223.4 145;" xml:space="preserve">
<g>
	<path d="M23.1,89.5l3.8,15.4l3.8-15.4h3.7l3.8,15.3l4-15.3h3.3l-5.7,19.6h-3.4l-4-15.1l-3.9,15.1h-3.4l-5.6-19.6H23.1z"/>
	<path d="M48.6,82.2H52V86h-3.3V82.2z M48.6,89.6H52v19.5h-3.3V89.6z"/>
	<path d="M57.6,84h3.3v5.5H64v2.7h-3.1V105c0,0.7,0.2,1.1,0.7,1.4c0.3,0.1,0.7,0.2,1.3,0.2c0.2,0,0.3,0,0.5,0c0.2,0,0.4,0,0.6-0.1
		v2.6c-0.4,0.1-0.8,0.2-1.2,0.2s-0.8,0.1-1.3,0.1c-1.5,0-2.6-0.4-3.1-1.2s-0.8-1.8-0.8-3.1V92.2h-2.6v-2.7h2.6V84z"/>
	<path d="M67.3,82.1h3.3v10c0.8-1,1.5-1.7,2.1-2.1c1.1-0.7,2.4-1,4-1c2.8,0,4.8,1,5.8,3c0.5,1.1,0.8,2.6,0.8,4.5v12.5h-3.4V96.7
		c0-1.4-0.2-2.5-0.5-3.2C78.7,92.5,77.6,92,76,92c-1.4,0-2.6,0.5-3.7,1.4s-1.7,2.7-1.7,5.3v10.4h-3.3V82.1z"/>
	<path d="M101.3,100.4c0.1,1.5,0.4,2.8,1,3.7c1.2,1.8,3.2,2.7,6.1,2.7c1.3,0,2.5-0.2,3.6-0.6c2.1-0.8,3.1-2.1,3.1-4.1
		c0-1.5-0.4-2.5-1.3-3.1c-0.9-0.6-2.3-1.1-4.2-1.6l-3.5-0.8c-2.3-0.5-3.9-1.1-4.9-1.8c-1.7-1.1-2.5-2.8-2.5-5c0-2.4,0.8-4.4,2.4-5.9
		c1.6-1.5,3.9-2.3,6.9-2.3c2.7,0,5.1,0.7,7,2c1.9,1.4,2.9,3.5,2.9,6.5h-3.4c-0.2-1.4-0.5-2.5-1.1-3.3c-1.1-1.4-2.9-2.1-5.4-2.1
		c-2.1,0-3.5,0.5-4.4,1.4c-0.9,0.9-1.3,1.9-1.3,3.1c0,1.3,0.5,2.3,1.6,2.9c0.7,0.4,2.3,0.9,4.7,1.5l3.6,0.9c1.8,0.4,3.1,1,4.1,1.7
		c1.7,1.3,2.5,3.1,2.5,5.5c0,3-1.1,5.1-3.2,6.4s-4.6,1.9-7.3,1.9c-3.3,0-5.8-0.9-7.6-2.6c-1.8-1.7-2.7-4-2.7-6.9H101.3z"/>
	<path d="M123.4,82.2h3.2v15.6l8.4-8.3h4.2l-7.5,7.3l7.9,12.3h-4.2l-6.2-10l-2.7,2.6v7.3h-3.2V82.2z"/>
	<path d="M142.2,82.2h3.3V86h-3.3V82.2z M142.2,89.6h3.3v19.5h-3.3V89.6z"/>
	<path d="M150.6,82.2h3.3v26.8h-3.3V82.2z"/>
	<path d="M158.9,82.2h3.3v26.8h-3.3V82.2z"/>
	<path d="M168.6,83.5c0.8-1.1,2.2-1.7,4.4-1.7c0.2,0,0.4,0,0.6,0c0.2,0,0.5,0,0.7,0.1v3c-0.3,0-0.6,0-0.7,0c-0.2,0-0.3,0-0.4,0
		c-1,0-1.6,0.3-1.8,0.8c-0.2,0.5-0.3,1.8-0.3,4h3.3v2.6h-3.3v16.9h-3.2V92.2h-2.7v-2.6h2.7v-3.1C167.9,85.2,168.2,84.2,168.6,83.5z"
		/>
	<path d="M180.8,89.5v13c0,1,0.2,1.8,0.5,2.4c0.6,1.2,1.6,1.8,3.2,1.8c2.2,0,3.7-1,4.6-3.1c0.4-1.1,0.7-2.6,0.7-4.5v-9.6h3.3v19.6
		h-3.1l0-2.9c-0.4,0.7-0.9,1.4-1.6,1.9c-1.2,1-2.7,1.5-4.5,1.5c-2.7,0-4.6-0.9-5.6-2.8c-0.5-1-0.8-2.3-0.8-4V89.5H180.8z"/>
	<path d="M198.4,82.2h3.3v26.8h-3.3V82.2z"/>
	<path d="M60.6,117.2h3.7v11.1H78v-11.1h3.7v26.8H78v-12.5H64.2v12.5h-3.7V117.2z"/>
	<path d="M97.5,132.2c0.8-0.1,1.3-0.4,1.5-0.9c0.1-0.3,0.2-0.7,0.2-1.3c0-1.1-0.4-1.9-1.2-2.4c-0.8-0.5-1.9-0.8-3.4-0.8
		c-1.7,0-2.9,0.5-3.6,1.4c-0.4,0.5-0.7,1.3-0.8,2.3h-3.1c0.1-2.4,0.8-4.1,2.3-5c1.5-0.9,3.2-1.4,5.2-1.4c2.3,0,4.2,0.4,5.6,1.3
		c1.4,0.9,2.1,2.2,2.1,4.1v11.3c0,0.3,0.1,0.6,0.2,0.8c0.1,0.2,0.4,0.3,0.9,0.3c0.1,0,0.3,0,0.5,0c0.2,0,0.4,0,0.6-0.1v2.4
		c-0.5,0.1-0.9,0.2-1.2,0.3c-0.3,0-0.6,0.1-1.1,0.1c-1.1,0-2-0.4-2.5-1.2c-0.3-0.4-0.5-1-0.6-1.8c-0.7,0.9-1.6,1.6-2.9,2.3
		c-1.3,0.6-2.6,1-4.1,1c-1.8,0-3.3-0.5-4.4-1.7s-1.7-2.5-1.7-4.1c0-1.8,0.6-3.2,1.7-4.2c1.1-1,2.6-1.6,4.5-1.8L97.5,132.2z
		 M90.6,141.1c0.7,0.5,1.5,0.8,2.5,0.8c1.2,0,2.3-0.3,3.4-0.8c1.8-0.9,2.7-2.3,2.7-4.4v-2.6c-0.4,0.3-0.9,0.5-1.5,0.6
		c-0.6,0.2-1.3,0.3-1.9,0.4l-2,0.3c-1.2,0.2-2.1,0.4-2.7,0.7c-1,0.6-1.5,1.5-1.5,2.7C89.6,139.8,89.9,140.6,90.6,141.1z"/>
	<path d="M107.8,124.5h3.1v2.8c0.9-1.1,1.9-2,2.9-2.5c1-0.5,2.2-0.7,3.5-0.7c2.8,0,4.6,1,5.6,2.9c0.5,1.1,0.8,2.6,0.8,4.5v12.5h-3.3
		v-12.3c0-1.2-0.2-2.2-0.5-2.9c-0.6-1.2-1.6-1.8-3.2-1.8c-0.8,0-1.4,0.1-1.9,0.2c-0.9,0.3-1.7,0.8-2.4,1.6c-0.5,0.6-0.9,1.3-1.1,2
		c-0.2,0.7-0.2,1.7-0.2,2.9v10.2h-3.3V124.5z"/>
	<path d="M139.4,125.1c0.6,0.4,1.2,1,2,1.9v-9.9h3.2v26.9h-3v-2.7c-0.8,1.2-1.7,2.1-2.7,2.6c-1,0.5-2.2,0.8-3.6,0.8
		c-2.2,0-4.1-0.9-5.6-2.7c-1.6-1.8-2.4-4.3-2.4-7.3c0-2.8,0.7-5.3,2.2-7.4s3.5-3.1,6.2-3.1C137.1,124.2,138.4,124.5,139.4,125.1z
		 M132.1,139.8c0.9,1.4,2.3,2.1,4.3,2.1c1.5,0,2.8-0.7,3.7-2c1-1.3,1.5-3.2,1.5-5.6c0-2.5-0.5-4.3-1.5-5.5c-1-1.2-2.2-1.8-3.7-1.8
		c-1.6,0-3,0.6-4,1.9c-1,1.3-1.5,3.1-1.5,5.6C130.7,136.6,131.2,138.4,132.1,139.8z"/>
	<path d="M151.4,137.9c0.1,1.1,0.4,1.9,0.8,2.5c0.8,1.1,2.3,1.6,4.4,1.6c1.2,0,2.3-0.3,3.3-0.8s1.4-1.3,1.4-2.5
		c0-0.8-0.4-1.5-1.1-1.9c-0.5-0.3-1.4-0.6-2.9-0.9l-2.7-0.7c-1.7-0.4-2.9-0.9-3.7-1.4c-1.4-0.9-2.2-2.1-2.2-3.7c0-1.8,0.7-3.3,2-4.5
		c1.4-1.1,3.2-1.7,5.5-1.7c3,0,5.1,0.9,6.5,2.6c0.8,1.1,1.2,2.3,1.2,3.5h-3.1c-0.1-0.7-0.3-1.4-0.8-2c-0.8-0.9-2.1-1.3-4-1.3
		c-1.3,0-2.2,0.2-2.9,0.7c-0.7,0.5-1,1.1-1,1.9c0,0.8,0.4,1.5,1.3,2c0.5,0.3,1.2,0.6,2.2,0.8l2.2,0.5c2.4,0.6,4,1.1,4.8,1.7
		c1.3,0.8,1.9,2.2,1.9,4c0,1.7-0.7,3.2-2,4.5c-1.3,1.3-3.4,1.9-6.1,1.9c-2.9,0-5-0.7-6.3-2c-1.2-1.3-1.9-3-2-4.9H151.4z"/>
</g>
<g>
	<path d="M85.1,5.9h-9.2V1.3h24v4.6h-9.3V31h-5.5V5.9z"/>
	<path d="M102.3,0h5v13.2c0.7-1,1.6-1.9,2.7-2.5c1.1-0.6,2.3-0.9,3.8-0.9c2.7,0,4.7,0.9,6.1,2.6c1.4,1.7,2.1,4.2,2.1,7.4V31h-5.1
		V19.8c0-1.8-0.3-3.2-1-4.3c-0.7-1-1.7-1.5-3.2-1.5c-1.8,0-3.1,0.6-4,1.7c-0.9,1.1-1.3,2.8-1.3,4.9V31h-5V0z"/>
	<path d="M146,20c0,0.4,0,1-0.1,1.7h-16c0.2,1.7,0.8,3.1,1.8,4.1c1,1,2.3,1.5,3.9,1.5c1.3,0,2.3-0.3,3.3-1c0.9-0.7,1.6-1.6,2.1-2.7
		l4.5,1.1c-0.7,2.2-2,3.9-3.8,5.1c-1.8,1.2-3.9,1.8-6.2,1.8c-2,0-3.9-0.5-5.5-1.4c-1.6-0.9-2.9-2.2-3.9-3.9
		c-0.9-1.7-1.4-3.6-1.4-5.7s0.5-4,1.4-5.7c0.9-1.7,2.2-3,3.9-3.9c1.6-0.9,3.5-1.4,5.5-1.4c2,0,3.8,0.4,5.4,1.3
		c1.6,0.9,2.9,2.1,3.8,3.6C145.5,16.3,146,18,146,20z M135.3,13.8c-1.4,0-2.6,0.4-3.5,1.1c-0.9,0.7-1.4,1.8-1.7,3.1h10.5
		c-0.2-1.3-0.8-2.4-1.7-3.1C138,14.2,136.8,13.8,135.3,13.8z"/>
	<path d="M15.9,70.8c-2.7,0-5.2-0.7-7.3-2c-2.1-1.3-3.8-3.2-5.1-5.5c-1.2-2.4-1.8-5-1.8-8c0-2.9,0.6-5.6,1.8-7.9
		c1.2-2.4,2.9-4.2,5.1-5.5c2.2-1.4,4.8-2,7.7-2c3.6,0,6.5,0.9,8.9,2.6c2.3,1.7,4.1,4.3,5.1,7.6l-5.6,0.6c-0.5-1.9-1.5-3.4-3-4.4
		c-1.4-1.1-3.1-1.6-5-1.6c-2,0-3.7,0.5-5.1,1.4c-1.4,0.9-2.4,2.2-3.1,3.8c-0.7,1.6-1,3.4-1,5.4c0,1.9,0.4,3.7,1.1,5.3
		c0.7,1.6,1.8,2.9,3.1,3.9c1.4,0.9,3,1.4,4.8,1.4c2.2,0,4.1-0.7,5.6-2c1.5-1.4,2.4-3.3,2.8-5.8h-9.9v-4.3H30v16.4h-4.5v-4.6
		c-0.9,1.6-2.3,2.8-4,3.8C19.9,70.3,18,70.8,15.9,70.8z"/>
	<path d="M44.5,70.8c-2.1,0-4-0.5-5.6-1.4c-1.7-0.9-3-2.2-3.9-3.9c-0.9-1.7-1.4-3.5-1.4-5.6c0-2.1,0.5-4,1.4-5.6
		c0.9-1.7,2.2-3,3.9-3.9c1.7-0.9,3.5-1.4,5.6-1.4c2.1,0,4,0.5,5.7,1.4c1.7,0.9,3,2.2,3.9,3.9c0.9,1.6,1.4,3.5,1.4,5.6
		c0,2.1-0.5,3.9-1.4,5.6c-0.9,1.6-2.3,2.9-3.9,3.9C48.5,70.3,46.7,70.8,44.5,70.8z M44.5,66.6c1.7,0,3-0.6,4.1-1.9
		c1-1.2,1.5-2.9,1.5-4.9c0-2-0.5-3.7-1.5-4.9c-1-1.2-2.4-1.9-4.1-1.9c-1.7,0-3,0.6-4,1.9c-1,1.2-1.5,2.9-1.5,4.9
		c0,2,0.5,3.6,1.5,4.9C41.5,66,42.9,66.6,44.5,66.6z"/>
	<path d="M78,66.7c0.7,0,1.3-0.2,1.8-0.7v3.4c-0.3,0.3-0.8,0.6-1.4,0.9c-0.6,0.3-1.3,0.4-2,0.4c-1.1,0-2.1-0.3-2.7-0.9
		c-0.7-0.6-1.1-1.4-1.2-2.4c-0.8,1-1.8,1.8-3,2.4c-1.2,0.6-2.5,0.9-4,0.9c-1.5,0-2.9-0.3-4-0.8c-1.1-0.5-2-1.3-2.6-2.2
		c-0.6-0.9-0.9-2-0.9-3.1c0-1.9,0.5-3.3,1.5-4.3c1-1,2.4-1.7,4.4-2c2-0.4,4.6-0.6,7.9-0.6c0-1.7-0.4-2.9-1.2-3.7
		c-0.7-0.8-1.9-1.1-3.4-1.1c-1.3,0-2.3,0.3-3,0.9c-0.7,0.6-1.3,1.5-1.7,2.8L58,55.4c0.7-2.3,1.7-4,3.3-5.1c1.5-1.1,3.5-1.7,6-1.7
		c3.1,0,5.5,0.9,7,2.6c1.5,1.7,2.3,4.3,2.3,7.9v6.3c0,0.4,0.1,0.8,0.4,1C77.2,66.6,77.6,66.7,78,66.7z M66.1,66.8
		c1.5,0,2.8-0.5,3.9-1.6c1.1-1.1,1.6-2.5,1.6-4.1l-0.9,0c-1.9,0.1-3.4,0.3-4.4,0.4c-1,0.1-1.8,0.4-2.4,0.9c-0.6,0.4-0.9,1.1-0.9,1.9
		c0,0.8,0.3,1.4,0.8,1.9C64.4,66.6,65.1,66.8,66.1,66.8z"/>
	<path d="M82.5,39.2h5v31h-5V39.2z"/>
	<path d="M99.8,61.4l-2.1,2v6.9h-5V39.4h5v18.2l8.1-8h6.4l-8.9,8.5l10.2,12.2h-6.3L99.8,61.4z"/>
	<path d="M134.3,59.2c0,0.4,0,1-0.1,1.7h-16c0.2,1.7,0.8,3.1,1.8,4.1c1,1,2.3,1.5,3.9,1.5c1.3,0,2.3-0.3,3.3-1
		c0.9-0.7,1.6-1.6,2.1-2.7l4.5,1.1c-0.7,2.2-2,3.9-3.8,5.1c-1.8,1.2-3.9,1.8-6.2,1.8c-2,0-3.9-0.5-5.5-1.4c-1.6-0.9-2.9-2.2-3.9-3.9
		c-0.9-1.7-1.4-3.6-1.4-5.7s0.5-4,1.4-5.7c0.9-1.7,2.2-3,3.9-3.9c1.6-0.9,3.5-1.4,5.5-1.4c2,0,3.8,0.4,5.4,1.3
		c1.6,0.9,2.9,2.1,3.8,3.6C133.8,55.5,134.3,57.2,134.3,59.2z M123.6,53c-1.4,0-2.6,0.4-3.5,1.1c-0.9,0.7-1.4,1.8-1.7,3.1h10.5
		c-0.2-1.3-0.8-2.4-1.7-3.1C126.4,53.4,125.2,53,123.6,53z"/>
	<path d="M157.1,59.2c0,0.4,0,1-0.1,1.7h-16c0.2,1.7,0.8,3.1,1.8,4.1c1,1,2.3,1.5,3.9,1.5c1.3,0,2.3-0.3,3.3-1
		c0.9-0.7,1.6-1.6,2.1-2.7l4.5,1.1c-0.7,2.2-2,3.9-3.8,5.1c-1.8,1.2-3.9,1.8-6.2,1.8c-2,0-3.9-0.5-5.5-1.4c-1.6-0.9-2.9-2.2-3.9-3.9
		c-0.9-1.7-1.4-3.6-1.4-5.7s0.5-4,1.4-5.7c0.9-1.7,2.2-3,3.9-3.9c1.6-0.9,3.5-1.4,5.5-1.4c2,0,3.8,0.4,5.4,1.3
		c1.6,0.9,2.9,2.1,3.8,3.6C156.7,55.5,157.1,57.2,157.1,59.2z M146.5,53c-1.4,0-2.6,0.4-3.5,1.1c-0.9,0.7-1.4,1.8-1.7,3.1h10.5
		c-0.2-1.3-0.8-2.4-1.7-3.1C149.2,53.4,148,53,146.5,53z"/>
	<path d="M160.7,49.5h5V52c0.6-0.9,1.5-1.6,2.7-2.2c1.2-0.6,2.4-0.9,3.7-0.9c1.8,0,3.5,0.5,5,1.4c1.5,0.9,2.7,2.2,3.5,3.9
		c0.9,1.6,1.3,3.5,1.3,5.6s-0.4,3.9-1.3,5.6c-0.9,1.7-2,3-3.5,3.9c-1.5,0.9-3.1,1.4-5,1.4c-1.3,0-2.6-0.3-3.7-0.8
		c-1.1-0.5-2-1.2-2.7-2v12h-5V49.5z M171,66.6c1.7,0,3-0.6,4-1.8c1-1.2,1.5-2.9,1.5-5s-0.5-3.7-1.5-4.9c-1-1.2-2.3-1.8-4-1.8
		c-1.7,0-3,0.6-4,1.8c-1,1.2-1.5,2.9-1.5,4.9s0.5,3.7,1.5,5C168,66,169.3,66.6,171,66.6z"/>
	<path d="M204.7,59.2c0,0.4,0,1-0.1,1.7h-16c0.2,1.7,0.8,3.1,1.8,4.1c1,1,2.3,1.5,3.9,1.5c1.3,0,2.3-0.3,3.3-1
		c0.9-0.7,1.6-1.6,2.1-2.7l4.5,1.1c-0.7,2.2-2,3.9-3.8,5.1c-1.8,1.2-3.9,1.8-6.2,1.8c-2,0-3.9-0.5-5.5-1.4c-1.6-0.9-2.9-2.2-3.9-3.9
		c-0.9-1.7-1.4-3.6-1.4-5.7s0.5-4,1.4-5.7c0.9-1.7,2.2-3,3.9-3.9c1.6-0.9,3.5-1.4,5.5-1.4c2,0,3.8,0.4,5.4,1.3
		c1.6,0.9,2.9,2.1,3.8,3.6C204.3,55.5,204.7,57.2,204.7,59.2z M194.1,53c-1.4,0-2.6,0.4-3.5,1.1c-0.9,0.7-1.4,1.8-1.7,3.1h10.5
		c-0.2-1.3-0.8-2.4-1.7-3.1C196.8,53.4,195.6,53,194.1,53z"/>
	<path d="M208.3,49.5h5v3.1c1.3-2.5,3.3-3.7,5.9-3.7c0.9,0,1.7,0.2,2.4,0.5v4.8c-0.9-0.3-1.8-0.4-2.8-0.4c-3.7,0-5.6,2.1-5.6,6.2
		v10.2h-5V49.5z"/>
</g>
</svg>
